<?xml version="1.0" encoding="utf-8"?>
<!-- Generator: Adobe Illustrator 22.1.0, SVG Export Plug-In . SVG Version: 6.00 Build 0)  -->
<svg version="1.1" id="Слой_1" xmlns="http://www.w3.org/2000/svg" xmlns:xlink="http://www.w3.org/1999/xlink" x="0px" y="0px"
	 viewBox="0 0 595.3 841.9" style="enable-background:new 0 0 595.3 841.9;" xml:space="preserve">
<style type="text/css">
	.st0{clip-path:url(#SVGID_2_);}
	.st1{clip-path:url(#SVGID_4_);fill:url(#SVGID_5_);}
	.st2{clip-path:url(#SVGID_7_);fill:url(#SVGID_8_);}
	.st3{clip-path:url(#SVGID_10_);fill:url(#SVGID_11_);}
	.st4{clip-path:url(#SVGID_13_);fill:url(#SVGID_14_);}
	.st5{clip-path:url(#SVGID_16_);fill:url(#SVGID_17_);}
	.st6{opacity:0.29;clip-path:url(#SVGID_19_);}
	.st7{clip-path:url(#SVGID_21_);}
	.st8{clip-path:url(#SVGID_19_);fill:#FFFFFF;}
</style>
<g>
	<defs>
		<rect id="SVGID_1_" x="-133.3" y="232" width="676.8" height="478.6"/>
	</defs>
	<clipPath id="SVGID_2_">
		<use xlink:href="#SVGID_1_"  style="overflow:visible;"/>
	</clipPath>
	<g class="st0">
		<defs>
			<path id="SVGID_3_" d="M213.1,348.9c-0.5,3.4-0.7,6.7-0.7,10c0.1,37.9,31.4,64.7,51,78.8c25.1-43.2,33.6-81.3,25.4-113.6
				c-2.4-9.7-6.3-18.1-10.7-25.2c0-0.1-0.1-0.1-0.1-0.2c0,0,0,0-0.1,0c-1.8-1.1-12-7.2-23.9-7.2
				C238.4,291.4,219.6,302.1,213.1,348.9"/>
		</defs>
		<clipPath id="SVGID_4_">
			<use xlink:href="#SVGID_3_"  style="overflow:visible;"/>
		</clipPath>
		
			<linearGradient id="SVGID_5_" gradientUnits="userSpaceOnUse" x1="-130.3336" y1="712.0956" x2="-126.5906" y2="712.0956" gradientTransform="matrix(0 39.0785 39.0785 0 -27572.9297 5384.6655)">
			<stop  offset="0" style="stop-color:#C36C40"/>
			<stop  offset="0.2163" style="stop-color:#C97D3B"/>
			<stop  offset="0.7457" style="stop-color:#D8A62B"/>
			<stop  offset="1" style="stop-color:#DFB721"/>
		</linearGradient>
		<rect x="212.4" y="291.4" class="st1" width="84.6" height="146.3"/>
	</g>
	<g class="st0">
		<defs>
			<path id="SVGID_6_" d="M297.1,322c8.8,34.7-0.2,75.1-26.6,120.5c4.1,2.1,9.2,1,12.1-2.6c44.4-56,29.5-98.6,13.5-121.7
				C296.5,319.5,296.8,320.7,297.1,322"/>
		</defs>
		<clipPath id="SVGID_7_">
			<use xlink:href="#SVGID_6_"  style="overflow:visible;"/>
		</clipPath>
		
			<linearGradient id="SVGID_8_" gradientUnits="userSpaceOnUse" x1="-131.1384" y1="712.1124" x2="-127.3955" y2="712.1124" gradientTransform="matrix(0 33.4893 33.4893 0 -23549.416 4709.9321)">
			<stop  offset="0" style="stop-color:#C36C40"/>
			<stop  offset="0.2163" style="stop-color:#C97D3B"/>
			<stop  offset="0.7457" style="stop-color:#D8A62B"/>
			<stop  offset="1" style="stop-color:#DFB721"/>
		</linearGradient>
		<rect x="270.5" y="318.2" class="st2" width="56.5" height="126.4"/>
	</g>
	<g class="st0">
		<defs>
			<path id="SVGID_9_" d="M137.3,366.4c-1.2,18,2.8,35,10.8,49.5c-2.1-10.1-3.3-20.6-3.3-31.4c0-10.5,1.2-21.2,4-31.8
				c6.2-23.4,19.4-43.8,39.6-61.2C159.8,305.2,139.5,333.5,137.3,366.4"/>
		</defs>
		<clipPath id="SVGID_10_">
			<use xlink:href="#SVGID_9_"  style="overflow:visible;"/>
		</clipPath>
		
			<linearGradient id="SVGID_11_" gradientUnits="userSpaceOnUse" x1="-131.7999" y1="708.9893" x2="-128.057" y2="708.9893" gradientTransform="matrix(0 33.2235 33.2235 0 -23392.9609 4670.3862)">
			<stop  offset="0" style="stop-color:#DFB721"/>
			<stop  offset="0.2543" style="stop-color:#D8A62B"/>
			<stop  offset="0.7837" style="stop-color:#C97D3B"/>
			<stop  offset="1" style="stop-color:#C36C40"/>
		</linearGradient>
		<rect x="136" y="291.5" class="st3" width="52.3" height="124.4"/>
	</g>
	<g class="st0">
		<defs>
			<path id="SVGID_12_" d="M220.2,283c-2.4,0.2-4.8,0.5-7.1,0.8c-29.8,18.9-48.7,42.7-56.1,71c-7.3,27.6-2.8,56,5.4,80.4
				c16.3,16.9,39.3,27.4,64.6,27.4h0.2c5.8,0,8.7-7,4.8-11.3C217.2,435,208,412.6,208,387.8c0-10.1,1.5-19.9,4.4-29
				c9.7-31.5,35-55.1,65.8-60c0,0,0.1,0,0.1,0c-0.1-0.1-0.1-0.1-0.2-0.1c0,0,0,0-0.1,0c-14.5-10-32-15.9-50.9-15.9
				C224.8,282.7,222.5,282.8,220.2,283"/>
		</defs>
		<clipPath id="SVGID_13_">
			<use xlink:href="#SVGID_12_"  style="overflow:visible;"/>
		</clipPath>
		
			<linearGradient id="SVGID_14_" gradientUnits="userSpaceOnUse" x1="-128.9085" y1="712.5538" x2="-125.1655" y2="712.5538" gradientTransform="matrix(0 48.0606 48.0606 0 -34031.7773 6478.1616)">
			<stop  offset="0" style="stop-color:#DFB721"/>
			<stop  offset="0.2543" style="stop-color:#D8A62B"/>
			<stop  offset="0.7837" style="stop-color:#C97D3B"/>
			<stop  offset="1" style="stop-color:#C36C40"/>
		</linearGradient>
		<rect x="149.7" y="282.7" class="st4" width="128.6" height="179.9"/>
	</g>
	<g class="st0">
		<defs>
			<path id="SVGID_15_" d="M165.8,286.1c-42.4,14.6-76.1,50.8-85.2,98.1c-5.5,28.5-1.1,56.7,10.7,81c0.6,1.2,2.3,0.8,2.4-0.5
				c0.1-2.3,0.4-4.3,0.7-6c0.3-1.6,2.5-1.7,2.9-0.1c4.1,16.1,11.4,30.5,20.5,43.1c17.5,16.9,39.9,29.1,65.6,34.1
				c2.9,0.6,5.9,1,8.8,1.4c0.9,0.1,1.3-1.1,0.5-1.5c-21.2-13.5-29.9-26.7-33.4-33.9c-0.7-1.5,1.1-2.8,2.3-1.8
				c21.4,18.2,47.4,26.8,72.5,30.2c9.7,1.3,19.6-0.2,28.5-4.3l0.3-0.2c8.5-4,8.6-13.7,4-21.9c-3.6-6.3-8.4-9.2-11.6-13.2
				c-3-3.8-7.8-5.7-12.6-4.9c-10.2,1.7-20.8,2-31.5,0.5c-62.2-8.2-103.8-66.8-92.1-127.5c5.8-30.2,23.7-55,47.6-70.5
				c1-0.7,0.5-2.2-0.6-2.2C166.1,286,166,286,165.8,286.1"/>
		</defs>
		<clipPath id="SVGID_16_">
			<use xlink:href="#SVGID_15_"  style="overflow:visible;"/>
		</clipPath>
		
			<linearGradient id="SVGID_17_" gradientUnits="userSpaceOnUse" x1="-118.5586" y1="717.2592" x2="-114.8157" y2="717.2592" gradientTransform="matrix(-73.9747 -42.1154 -42.1154 73.9747 21702.6523 -57588.2969)">
			<stop  offset="0" style="stop-color:#00B8DA"/>
			<stop  offset="0.2404" style="stop-color:#00AAD2"/>
			<stop  offset="0.7455" style="stop-color:#008AC1"/>
			<stop  offset="1" style="stop-color:#0079B8"/>
		</linearGradient>
		<polygon class="st5" points="223.5,621.6 -32.8,475.7 123.2,201.5 379.6,347.5 		"/>
	</g>
	<g class="st0">
		<defs>
			<rect id="SVGID_18_" x="-133.3" y="537" width="676.8" height="68.2"/>
		</defs>
		<clipPath id="SVGID_19_">
			<use xlink:href="#SVGID_18_"  style="overflow:visible;"/>
		</clipPath>
		<g class="st6">
			<g>
				<defs>
					<rect id="SVGID_20_" x="-183.4" y="547.9" width="788.2" height="205.9"/>
				</defs>
				<clipPath id="SVGID_21_">
					<use xlink:href="#SVGID_20_"  style="overflow:visible;"/>
				</clipPath>
				<g class="st7">
					<defs>
						<rect id="SVGID_22_" x="-183.4" y="547.9" width="788.2" height="205.9"/>
					</defs>
					<clipPath id="SVGID_23_">
						<use xlink:href="#SVGID_22_"  style="overflow:visible;"/>
					</clipPath>
					<g style="clip-path:url(#SVGID_23_);">
						
							<image style="overflow:visible;" width="4085" height="1067" xlink:href="C64F4C3E.png"  transform="matrix(0.1929 0 0 0.1929 -183.4125 547.868)">
						</image>
					</g>
				</g>
			</g>
		</g>
		<rect x="-141" y="605.2" class="st8" width="692" height="109.4"/>
	</g>
</g>
</svg>
